<?xml version="1.0" encoding="UTF-8"?>
<svg id="_Шар_2" data-name="Шар 2" xmlns="http://www.w3.org/2000/svg" xmlns:xlink="http://www.w3.org/1999/xlink" viewBox="0 0 136.37 136.37">
  <defs>
    <style>
      .cls-1 {
        stroke: #1d1d1b;
        stroke-dasharray: 0 0 12.27 12.27;
      }

      .cls-1, .cls-2 {
        fill: none;
        stroke-width: 11.34px;
      }

      .cls-1, .cls-2, .cls-3 {
        stroke-miterlimit: 10;
      }

      .cls-2 {
        stroke: url(#Foliage_9);
      }

      .cls-4 {
        fill: #706f6f;
      }

      .cls-5 {
        fill: #1d1d1b;
      }

      .cls-3 {
        fill: #3c3c3b;
        stroke: #fff;
        stroke-width: 4.25px;
      }
    </style>
    <linearGradient id="Foliage_9" data-name="Foliage 9" x1="0" y1="68.19" x2="136.37" y2="68.19" gradientUnits="userSpaceOnUse">
      <stop offset=".01" stop-color="#f9e69e"/>
      <stop offset=".51" stop-color="#efcb00"/>
      <stop offset="1" stop-color="#c7a400"/>
    </linearGradient>
  </defs>
  <g id="_Шар_4" data-name="Шар 4">
    <circle class="cls-4" cx="68.19" cy="68.19" r="61.33"/>
    <circle class="cls-2" cx="68.19" cy="68.19" r="62.5"/>
    <circle class="cls-1" cx="68.19" cy="68.19" r="62.5" transform="translate(-28.24 68.19) rotate(-45)"/>
    <circle class="cls-3" cx="68.19" cy="68.19" r="50.56"/>
    <path class="cls-5" d="m95.12,67.14c-5.76-12.34-19.44-4.06-19.44-4.06,0,0,7.15-7.88,3.57-16.51-3.59-8.64-11.05-7.92-11.05-7.92,0,0-7.46-.72-11.05,7.92-3.59,8.64,3.57,16.51,3.57,16.51,0,0-13.68-8.29-19.44,4.06-3.83,8.2,1.89,17.91,9.81,18.19,8.49.3,14.99-7.01,14.99-7.01,0,0-.37,7.23-2.97,11.29-2.61,4.07-7.94,5.73-7.94,5.73h26.09s-5.33-1.67-7.94-5.73c-2.61-4.07-2.97-11.29-2.97-11.29,0,0,6.5,7.3,14.99,7.01,7.92-.28,13.63-9.99,9.81-18.19Z"/>
  </g>
</svg>