<?xml version="1.0" encoding="UTF-8"?>
<svg id="_Шар_2" data-name="Шар 2" xmlns="http://www.w3.org/2000/svg" xmlns:xlink="http://www.w3.org/1999/xlink" viewBox="0 0 136.37 136.37">
  <defs>
    <style>
      .cls-1 {
        stroke: #1d1d1b;
        stroke-dasharray: 0 0 12.27 12.27;
      }

      .cls-1, .cls-2 {
        fill: none;
        stroke-width: 11.34px;
      }

      .cls-1, .cls-2, .cls-3 {
        stroke-miterlimit: 10;
      }

      .cls-2 {
        stroke: url(#Foliage_9);
      }

      .cls-4 {
        fill: #706f6f;
      }

      .cls-3 {
        fill: #3c3c3b;
        stroke: #fff;
        stroke-width: 4.25px;
      }
    </style>
    <linearGradient id="Foliage_9" data-name="Foliage 9" x1="0" y1="68.19" x2="136.37" y2="68.19" gradientUnits="userSpaceOnUse">
      <stop offset=".01" stop-color="#f9e69e"/>
      <stop offset=".51" stop-color="#efcb00"/>
      <stop offset="1" stop-color="#c7a400"/>
    </linearGradient>
  </defs>
  <g id="_Шар_4" data-name="Шар 4">
    <circle class="cls-4" cx="68.19" cy="68.19" r="61.33"/>
    <circle class="cls-2" cx="68.19" cy="68.19" r="62.5"/>
    <circle class="cls-1" cx="68.19" cy="68.19" r="62.5" transform="translate(-20.17 106.8) rotate(-68.61)"/>
    <circle class="cls-3" cx="68.19" cy="68.19" r="50.56"/>
    <path d="m92.5,60.55l-1.54-1.55s-8.39-8.38-11.18-11.18c-2.8-2.8-11.19-11.18-11.19-11.18,0,0-8.38,8.38-11.18,11.18-2.8,2.8-11.18,11.18-11.18,11.18h0l-1.38,1.38c-3.08,3.09-4.63,7.14-4.63,11.19,0,4.04,1.55,8.09,4.63,11.18,5.85,5.84,15.12,6.14,21.33.94.05,1.09.08,2.05.08,2.79,0,1.15-.29,4.13-.67,5.21-.61,1.74-4.18,5.66-4.18,5.66h14.55s-3.56-3.92-4.18-5.66c-.38-1.08-.67-4.07-.67-5.21,0-.7.03-1.61.07-2.63,2.93,2.46,6.54,3.7,10.14,3.7,4.05,0,8.09-1.55,11.18-4.64,6.18-6.17,6.18-16.18,0-22.36Z"/>
  </g>
</svg>