<?xml version="1.0" encoding="UTF-8"?>
<svg id="_Шар_2" data-name="Шар 2" xmlns="http://www.w3.org/2000/svg" viewBox="0 0 174.48 174.27">
  <defs>
    <style>
      .cls-1 {
        fill: none;
      }

      .cls-1, .cls-2 {
        stroke: #fff;
        stroke-miterlimit: 10;
        stroke-width: 5.67px;
      }

      .cls-2, .cls-3 {
        fill: #1d1d1b;
      }

      .cls-4 {
        fill: #706f6f;
      }

      .cls-5 {
        fill: #ffed00;
      }

      .cls-6 {
        fill: #063;
      }
    </style>
  </defs>
  <g id="_Шар_6" data-name="Шар 6">
    <circle class="cls-3" cx="87.24" cy="87.03" r="87.03"/>
    <g>
      <path class="cls-4" d="m138.12,157.69c-5.48,3.98-11.43,7.34-17.74,9.96-1.78.74-3.58,1.42-5.42,2.04-8.24,2.8-17.01,4.4-26.11,4.56-.54.02-1.07.02-1.61.02s-1.07,0-1.61-.02c-9.1-.16-17.87-1.76-26.11-4.56-1.84-.62-3.64-1.3-5.42-2.04-6.31-2.62-12.26-5.98-17.74-9.96l18.09-70.66h65.58l18.09,70.66Z"/>
      <path class="cls-6" d="m0,87.03c0,26.71,12.27,50.78,31.43,66.83l17.11-66.83H0Z"/>
      <path d="m54.45,87.03l-18.09,70.66c-1.69-1.21-3.33-2.49-4.93-3.83h0s17.11-66.83,17.11-66.83h5.91Z"/>
      <path class="cls-6" d="m125.94,87.03l17.11,66.83c19.16-16.05,31.43-40.12,31.43-66.83h-48.54Z"/>
      <path d="m143.05,153.85h0c-1.6,1.35-3.24,2.63-4.93,3.84l-18.09-70.66h5.91l17.11,66.82Z"/>
    </g>
    <circle class="cls-3" cx="26.68" cy="121.4" r=".96"/>
    <circle class="cls-3" cx="18.02" cy="111.12" r="1.1"/>
    <circle class="cls-3" cx="30.66" cy="105.45" r="1.91"/>
    <circle class="cls-3" cx="14.18" cy="96.17" r="1.79"/>
    <circle class="cls-3" cx="25.95" cy="136.21" r="1.68"/>
    <circle class="cls-3" cx="35.15" cy="117.71" r="1.68"/>
    <circle class="cls-3" cx="4.44" cy="106.44" r=".99"/>
    <circle class="cls-3" cx="38.17" cy="90.78" r="1.81"/>
    <circle class="cls-3" cx="23.81" cy="98.08" r="1.91"/>
    <circle class="cls-3" cx="147.69" cy="102.51" r="2.52"/>
    <circle class="cls-3" cx="155.93" cy="92.14" r="2.24"/>
    <circle class="cls-3" cx="161.42" cy="106.79" r="3.24"/>
    <circle class="cls-3" cx="153.83" cy="122.55" r="2.11"/>
    <circle class="cls-3" cx="138.83" cy="126.4" r="1.4"/>
    <circle class="cls-3" cx="139.92" cy="110.42" r="1.8"/>
    <circle class="cls-3" cx="146.43" cy="118.42" r="1.26"/>
    <circle class="cls-3" cx="150.96" cy="139.54" r=".75"/>
    <circle class="cls-3" cx="144.74" cy="136.22" r="1.69"/>
    <circle class="cls-3" cx="138.83" cy="93.99" r="1.4"/>
    <circle class="cls-3" cx="167.85" cy="94.69" r=".7"/>
    <path class="cls-5" d="m88.85,166.56v7.69c-.54.02-1.07.02-1.61.02s-1.07,0-1.61-.02v-7.69h3.22Z"/>
    <rect class="cls-5" x="85.64" y="146.37" width="3.22" height="8.34"/>
    <rect class="cls-5" x="85.64" y="126.19" width="3.22" height="8.34"/>
    <rect class="cls-5" x="85.64" y="106" width="3.22" height="8.34"/>
    <rect class="cls-5" x="85.63" y="87.03" width="3.22" height="7.12"/>
    <path class="cls-2" d="m114.98,29.68h-55.47c-2.6,0-4.71,2.11-4.71,4.71v63.15c0,2.66,2.16,4.81,4.81,4.81h1.12c1.97,0,3.74-1.2,4.47-3.03l1.17-2.92c.73-1.83,2.5-3.03,4.47-3.03h32.8c1.97,0,3.74,1.2,4.47,3.03l1.17,2.92c.73,1.83,2.5,3.03,4.47,3.03h1.12c2.66,0,4.81-2.16,4.81-4.81v-63.15c0-2.6-2.11-4.71-4.71-4.71Z"/>
    <path class="cls-1" d="m100.64,70.64h-13.4s-13.4,0-13.4,0c-2.36,0-2.7,0-.46,0h27.74c2.23,0,1.9,0-.46,0Z"/>
    <circle class="cls-1" cx="101.1" cy="80.02" r="1.54"/>
    <circle class="cls-1" cx="74.09" cy="80.02" r="1.54"/>
    <path class="cls-1" d="m71.03,61.88l-.14-17.79c.17-.38,16.35,12.75,16.35,12.75,0,0,15.36-13.17,15.54-12.79l-.17,17.84"/>
  </g>
</svg>