<?xml version="1.0" encoding="UTF-8"?>
<svg id="_Шар_2" data-name="Шар 2" xmlns="http://www.w3.org/2000/svg" xmlns:xlink="http://www.w3.org/1999/xlink" viewBox="0 0 171.55 198.71">
  <defs>
    <style>
      .cls-1, .cls-2, .cls-3, .cls-4, .cls-5, .cls-6, .cls-7 {
        stroke-miterlimit: 10;
      }

      .cls-1, .cls-2, .cls-3, .cls-5, .cls-6, .cls-7 {
        stroke: #1d1d1b;
      }

      .cls-1, .cls-2, .cls-6 {
        fill: #fff;
      }

      .cls-1, .cls-3 {
        stroke-width: 1px;
      }

      .cls-2 {
        stroke-width: 2.83px;
      }

      .cls-3 {
        fill: #3c3c3b;
      }

      .cls-4 {
        fill: url(#Sky_18);
        stroke: #575756;
        stroke-width: 5.67px;
      }

      .cls-5 {
        font-family: Garamond, Garamond;
        font-size: 31.16px;
        stroke-width: .28px;
      }

      .cls-5, .cls-7 {
        fill: #312783;
      }

      .cls-7 {
        stroke-width: .28px;
      }

      .cls-8 {
        fill: #1d1d1b;
      }
    </style>
    <linearGradient id="Sky_18" data-name="Sky 18" x1="20.5" y1="99.35" x2="152.05" y2="99.35" gradientUnits="userSpaceOnUse">
      <stop offset="0" stop-color="#ce7329"/>
      <stop offset=".13" stop-color="#ef9248"/>
      <stop offset=".33" stop-color="#f7c681"/>
      <stop offset=".39" stop-color="#fad895"/>
      <stop offset=".54" stop-color="#e3c4ad"/>
      <stop offset=".71" stop-color="#ceb1bd"/>
      <stop offset=".77" stop-color="#be9bad"/>
      <stop offset=".87" stop-color="#a77895"/>
      <stop offset=".95" stop-color="#986386"/>
      <stop offset="1" stop-color="#935c81"/>
    </linearGradient>
  </defs>
  <g id="_Шар_6" data-name="Шар 6">
    <polygon class="cls-3" points="86.28 99.37 24.59 161.07 65.85 99.37 86.28 99.37"/>
    <polygon class="cls-3" points="86.28 78.93 86.28 99.36 24.59 37.66 86.28 78.93"/>
    <polygon class="cls-3" points="147.99 37.67 106.72 99.37 86.29 99.37 147.99 37.67"/>
    <polygon class="cls-1" points="147.99 161.07 86.29 99.37 106.72 99.37 147.99 161.07"/>
    <polygon class="cls-1" points="86.28 99.37 86.28 119.81 24.59 161.07 86.28 99.37"/>
    <polygon class="cls-1" points="147.99 37.67 86.29 99.37 86.28 99.37 86.28 78.93 147.99 37.67"/>
    <polygon class="cls-3" points="147.99 161.07 86.28 119.81 86.28 99.37 86.29 99.37 147.99 161.07"/>
    <polygon class="cls-1" points="86.28 99.36 86.28 99.37 65.85 99.37 24.59 37.66 86.28 99.36"/>
    <polygon class="cls-3" points="86.28 99.36 86.28 198.62 69.84 115.8 86.28 99.36"/>
    <polygon class="cls-3" points="72.18 85.25 86.28 99.35 1.12 99.35 72.18 85.25"/>
    <polygon class="cls-3" points="86.29 .1 102.72 82.92 86.29 99.35 86.29 .1"/>
    <polygon class="cls-1" points="171.45 99.35 86.29 99.35 100.39 85.25 171.45 99.35"/>
    <polygon class="cls-1" points="86.28 99.36 102.72 115.8 86.28 198.62 86.28 99.36"/>
    <polygon class="cls-1" points="86.29 .1 86.29 99.35 86.28 99.36 69.84 82.92 86.29 .1"/>
    <polygon class="cls-3" points="171.45 99.35 100.39 113.46 86.28 99.36 86.29 99.35 171.45 99.35"/>
    <polygon class="cls-1" points="86.28 99.35 86.28 99.36 72.18 113.46 1.12 99.35 86.28 99.35"/>
    <circle class="cls-4" cx="86.28" cy="99.35" r="65.78"/>
    <path class="cls-8" d="m5.01,87.14h0c1.56-.31,3.17-.01,4.52.83l14.72,9.23c1.29.81,2.84,1.12,4.34.86l8.95-1.51c8.03-1.36,15.92-3.47,23.56-6.3l57.47-21.34c10.5-3.9,21.78-5.26,32.9-3.97l7.52.87c4.58,1.09,7.54.83,6.12,6.31,0,0-1.24,2.38-3.99,3.49l-32.26,11.09c-19.4,7.81-38.03,12.89-58.34,17.88l-43.73,12.68c-2.17.53-4.46-.14-6-1.76L.37,95.36c-1.29-3.58.9-7.47,4.64-8.22Z"/>
    <path class="cls-6" d="m5.41,87.08s2.05-.34,3.45.53l16.06,9.79c1.37.56,2.92.74,4.35.49l8.54-1.5c7.66-1.34,15.08-3.25,22.16-5.7l53.03-19.72c9.73-3.37,23.26-9.43,41.19-5.72h0c3,.15,9.39.11,10.84,3.49.84,1.96-5.43,4.29-8.21,5.56l-32.65,8.75c-18.85,7.04-37.54,12.58-55.67,16.91l-40.25,11.4c-2.05.49-5.69-.97-7.41-2.14L2.1,92.3c-1.74-2.67-.24-4.52,3.31-5.23Z"/>
    <path class="cls-7" d="m154.04,65.69l-11.71,2.82-4.04-2.01,8.13-1.84s2.78.32,3.72.45,3.9.57,3.9.57Z"/>
    <g>
      <ellipse class="cls-2" cx="73.77" cy="109.75" rx="3.23" ry="2.46" transform="translate(-56.66 131.57) rotate(-65.59)"/>
      <ellipse class="cls-2" cx="73.85" cy="109.71" rx="3.24" ry="2.47" transform="translate(-56.57 131.63) rotate(-65.59)"/>
      <ellipse class="cls-2" cx="73.94" cy="109.68" rx="3.24" ry="2.47" transform="translate(-56.49 131.69) rotate(-65.59)"/>
      <ellipse class="cls-2" cx="74.03" cy="109.64" rx="3.25" ry="2.48" transform="translate(-56.41 131.75) rotate(-65.59)"/>
      <ellipse class="cls-2" cx="74.11" cy="109.61" rx="3.26" ry="2.48" transform="translate(-56.33 131.8) rotate(-65.59)"/>
      <ellipse class="cls-2" cx="74.2" cy="109.57" rx="3.26" ry="2.49" transform="translate(-56.24 131.86) rotate(-65.59)"/>
      <ellipse class="cls-2" cx="74.28" cy="109.54" rx="3.27" ry="2.49" transform="translate(-56.16 131.92) rotate(-65.59)"/>
      <ellipse class="cls-2" cx="74.37" cy="109.5" rx="3.28" ry="2.5" transform="translate(-56.08 131.98) rotate(-65.59)"/>
      <ellipse class="cls-2" cx="74.46" cy="109.47" rx="3.28" ry="2.5" transform="translate(-56 132.03) rotate(-65.59)"/>
      <ellipse class="cls-2" cx="74.54" cy="109.43" rx="3.29" ry="2.51" transform="translate(-55.91 132.09) rotate(-65.59)"/>
      <ellipse class="cls-2" cx="74.63" cy="109.4" rx="3.3" ry="2.51" transform="translate(-55.83 132.15) rotate(-65.59)"/>
      <ellipse class="cls-2" cx="74.71" cy="109.36" rx="3.3" ry="2.52" transform="translate(-55.75 132.21) rotate(-65.59)"/>
      <ellipse class="cls-2" cx="74.8" cy="109.33" rx="3.31" ry="2.52" transform="translate(-55.66 132.26) rotate(-65.59)"/>
      <ellipse class="cls-2" cx="74.89" cy="109.29" rx="3.31" ry="2.52" transform="translate(-55.58 132.32) rotate(-65.59)"/>
      <ellipse class="cls-2" cx="74.97" cy="109.26" rx="3.32" ry="2.53" transform="translate(-55.5 132.38) rotate(-65.59)"/>
      <ellipse class="cls-2" cx="75.06" cy="109.22" rx="3.33" ry="2.53" transform="translate(-55.42 132.44) rotate(-65.59)"/>
      <ellipse class="cls-2" cx="75.14" cy="109.18" rx="3.33" ry="2.54" transform="translate(-55.33 132.49) rotate(-65.59)"/>
      <ellipse class="cls-2" cx="75.23" cy="109.15" rx="3.34" ry="2.54" transform="translate(-55.25 132.55) rotate(-65.59)"/>
      <ellipse class="cls-2" cx="75.32" cy="109.11" rx="3.35" ry="2.55" transform="translate(-55.17 132.61) rotate(-65.59)"/>
      <ellipse class="cls-2" cx="75.4" cy="109.08" rx="3.35" ry="2.55" transform="translate(-55.09 132.67) rotate(-65.59)"/>
      <ellipse class="cls-2" cx="75.49" cy="109.04" rx="3.36" ry="2.56" transform="translate(-55 132.72) rotate(-65.59)"/>
      <ellipse class="cls-2" cx="75.57" cy="109.01" rx="3.36" ry="2.56" transform="translate(-54.92 132.78) rotate(-65.59)"/>
      <ellipse class="cls-2" cx="75.66" cy="108.97" rx="3.37" ry="2.57" transform="translate(-54.84 132.84) rotate(-65.59)"/>
      <ellipse class="cls-2" cx="75.75" cy="108.94" rx="3.38" ry="2.57" transform="translate(-54.76 132.9) rotate(-65.59)"/>
      <ellipse class="cls-2" cx="75.83" cy="108.9" rx="3.38" ry="2.58" transform="translate(-54.67 132.95) rotate(-65.59)"/>
      <ellipse class="cls-2" cx="75.92" cy="108.87" rx="3.39" ry="2.58" transform="translate(-54.59 133.01) rotate(-65.59)"/>
      <ellipse class="cls-2" cx="76" cy="108.83" rx="3.4" ry="2.59" transform="translate(-54.51 133.07) rotate(-65.59)"/>
      <ellipse class="cls-2" cx="76.09" cy="108.8" rx="3.4" ry="2.59" transform="translate(-54.43 133.13) rotate(-65.59)"/>
      <ellipse class="cls-2" cx="76.18" cy="108.76" rx="3.41" ry="2.6" transform="translate(-54.34 133.19) rotate(-65.59)"/>
      <ellipse class="cls-2" cx="76.26" cy="108.73" rx="3.41" ry="2.6" transform="translate(-54.26 133.24) rotate(-65.59)"/>
      <ellipse class="cls-2" cx="76.35" cy="108.69" rx="3.42" ry="2.61" transform="translate(-54.18 133.3) rotate(-65.59)"/>
      <ellipse class="cls-2" cx="76.43" cy="108.66" rx="3.43" ry="2.61" transform="translate(-54.09 133.36) rotate(-65.59)"/>
      <ellipse class="cls-2" cx="76.52" cy="108.62" rx="3.43" ry="2.62" transform="translate(-54.01 133.42) rotate(-65.59)"/>
      <ellipse class="cls-2" cx="76.61" cy="108.58" rx="3.44" ry="2.62" transform="translate(-53.93 133.47) rotate(-65.59)"/>
      <ellipse class="cls-2" cx="76.69" cy="108.55" rx="3.45" ry="2.63" transform="translate(-53.85 133.53) rotate(-65.59)"/>
      <ellipse class="cls-2" cx="76.78" cy="108.51" rx="3.45" ry="2.63" transform="translate(-53.76 133.59) rotate(-65.59)"/>
      <ellipse class="cls-2" cx="76.86" cy="108.48" rx="3.46" ry="2.63" transform="translate(-53.68 133.65) rotate(-65.59)"/>
      <ellipse class="cls-2" cx="76.95" cy="108.44" rx="3.46" ry="2.64" transform="translate(-53.6 133.7) rotate(-65.59)"/>
      <ellipse class="cls-2" cx="77.04" cy="108.41" rx="3.47" ry="2.64" transform="translate(-53.52 133.76) rotate(-65.59)"/>
      <ellipse class="cls-2" cx="77.12" cy="108.37" rx="3.48" ry="2.65" transform="translate(-53.43 133.82) rotate(-65.59)"/>
      <ellipse class="cls-2" cx="77.21" cy="108.34" rx="3.48" ry="2.65" transform="translate(-53.35 133.88) rotate(-65.59)"/>
      <ellipse class="cls-2" cx="77.29" cy="108.3" rx="3.49" ry="2.66" transform="translate(-53.27 133.93) rotate(-65.59)"/>
      <ellipse class="cls-2" cx="77.38" cy="108.27" rx="3.5" ry="2.66" transform="translate(-53.19 133.99) rotate(-65.59)"/>
      <ellipse class="cls-2" cx="77.47" cy="108.23" rx="3.5" ry="2.67" transform="translate(-53.1 134.05) rotate(-65.59)"/>
      <ellipse class="cls-2" cx="77.55" cy="108.2" rx="3.51" ry="2.67" transform="translate(-53.02 134.11) rotate(-65.59)"/>
      <ellipse class="cls-2" cx="77.64" cy="108.16" rx="3.51" ry="2.68" transform="translate(-52.94 134.16) rotate(-65.59)"/>
      <ellipse class="cls-2" cx="77.72" cy="108.13" rx="3.52" ry="2.68" transform="translate(-52.86 134.22) rotate(-65.59)"/>
      <ellipse class="cls-2" cx="77.81" cy="108.09" rx="3.53" ry="2.69" transform="translate(-52.77 134.28) rotate(-65.59)"/>
      <ellipse class="cls-2" cx="77.9" cy="108.05" rx="3.53" ry="2.69" transform="translate(-52.69 134.34) rotate(-65.59)"/>
      <ellipse class="cls-2" cx="77.98" cy="108.02" rx="3.54" ry="2.7" transform="translate(-52.61 134.39) rotate(-65.59)"/>
      <ellipse class="cls-2" cx="78.07" cy="107.98" rx="3.55" ry="2.7" transform="translate(-52.53 134.45) rotate(-65.59)"/>
      <ellipse class="cls-2" cx="78.15" cy="107.95" rx="3.55" ry="2.71" transform="translate(-52.44 134.51) rotate(-65.59)"/>
      <ellipse class="cls-2" cx="78.24" cy="107.91" rx="3.56" ry="2.71" transform="translate(-52.36 134.57) rotate(-65.59)"/>
      <ellipse class="cls-2" cx="78.33" cy="107.88" rx="3.56" ry="2.72" transform="translate(-52.28 134.62) rotate(-65.59)"/>
      <ellipse class="cls-2" cx="78.41" cy="107.84" rx="3.57" ry="2.72" transform="translate(-52.19 134.68) rotate(-65.59)"/>
      <ellipse class="cls-2" cx="78.5" cy="107.81" rx="3.58" ry="2.73" transform="translate(-52.11 134.74) rotate(-65.59)"/>
      <ellipse class="cls-2" cx="78.58" cy="107.77" rx="3.58" ry="2.73" transform="translate(-52.03 134.8) rotate(-65.59)"/>
      <ellipse class="cls-2" cx="78.67" cy="107.74" rx="3.59" ry="2.74" transform="translate(-51.95 134.86) rotate(-65.59)"/>
      <ellipse class="cls-2" cx="78.76" cy="107.7" rx="3.6" ry="2.74" transform="translate(-51.86 134.91) rotate(-65.59)"/>
      <ellipse class="cls-2" cx="78.84" cy="107.67" rx="3.6" ry="2.74" transform="translate(-51.78 134.97) rotate(-65.59)"/>
      <ellipse class="cls-2" cx="78.93" cy="107.63" rx="3.61" ry="2.75" transform="translate(-51.7 135.03) rotate(-65.59)"/>
      <ellipse class="cls-2" cx="79.01" cy="107.6" rx="3.62" ry="2.75" transform="translate(-51.62 135.09) rotate(-65.59)"/>
      <ellipse class="cls-2" cx="79.1" cy="107.56" rx="3.62" ry="2.76" transform="translate(-51.53 135.14) rotate(-65.59)"/>
      <ellipse class="cls-2" cx="79.19" cy="107.52" rx="3.63" ry="2.76" transform="translate(-51.45 135.2) rotate(-65.59)"/>
      <ellipse class="cls-2" cx="79.27" cy="107.49" rx="3.63" ry="2.77" transform="translate(-51.37 135.26) rotate(-65.59)"/>
      <ellipse class="cls-2" cx="79.36" cy="107.45" rx="3.64" ry="2.77" transform="translate(-51.29 135.32) rotate(-65.59)"/>
      <ellipse class="cls-2" cx="79.44" cy="107.42" rx="3.65" ry="2.78" transform="translate(-51.2 135.37) rotate(-65.59)"/>
      <ellipse class="cls-2" cx="79.53" cy="107.38" rx="3.65" ry="2.78" transform="translate(-51.12 135.43) rotate(-65.59)"/>
      <ellipse class="cls-2" cx="79.62" cy="107.35" rx="3.66" ry="2.79" transform="translate(-51.04 135.49) rotate(-65.59)"/>
      <ellipse class="cls-2" cx="79.7" cy="107.31" rx="3.67" ry="2.79" transform="translate(-50.96 135.55) rotate(-65.59)"/>
      <ellipse class="cls-2" cx="79.79" cy="107.28" rx="3.67" ry="2.8" transform="translate(-50.87 135.6) rotate(-65.59)"/>
      <ellipse class="cls-2" cx="79.87" cy="107.24" rx="3.68" ry="2.8" transform="translate(-50.79 135.66) rotate(-65.59)"/>
      <ellipse class="cls-2" cx="79.96" cy="107.21" rx="3.68" ry="2.81" transform="translate(-50.71 135.72) rotate(-65.59)"/>
      <ellipse class="cls-2" cx="80.05" cy="107.17" rx="3.69" ry="2.81" transform="translate(-50.62 135.78) rotate(-65.59)"/>
      <ellipse class="cls-2" cx="80.13" cy="107.14" rx="3.7" ry="2.82" transform="translate(-50.54 135.83) rotate(-65.59)"/>
      <ellipse class="cls-2" cx="80.22" cy="107.1" rx="3.7" ry="2.82" transform="translate(-50.46 135.89) rotate(-65.59)"/>
      <ellipse class="cls-2" cx="80.3" cy="107.07" rx="3.71" ry="2.83" transform="translate(-50.38 135.95) rotate(-65.59)"/>
      <ellipse class="cls-2" cx="80.39" cy="107.03" rx="3.72" ry="2.83" transform="translate(-50.29 136.01) rotate(-65.59)"/>
      <ellipse class="cls-2" cx="80.48" cy="106.99" rx="3.72" ry="2.84" transform="translate(-50.21 136.06) rotate(-65.59)"/>
      <ellipse class="cls-2" cx="80.56" cy="106.96" rx="3.73" ry="2.84" transform="translate(-50.13 136.12) rotate(-65.59)"/>
      <ellipse class="cls-2" cx="80.65" cy="106.92" rx="3.73" ry="2.85" transform="translate(-50.05 136.18) rotate(-65.59)"/>
      <ellipse class="cls-2" cx="80.73" cy="106.89" rx="3.74" ry="2.85" transform="translate(-49.96 136.24) rotate(-65.59)"/>
      <ellipse class="cls-2" cx="80.82" cy="106.85" rx="3.75" ry="2.85" transform="translate(-49.88 136.29) rotate(-65.59)"/>
      <ellipse class="cls-2" cx="80.91" cy="106.82" rx="3.75" ry="2.86" transform="translate(-49.8 136.35) rotate(-65.59)"/>
      <ellipse class="cls-2" cx="80.99" cy="106.78" rx="3.76" ry="2.86" transform="translate(-49.72 136.41) rotate(-65.59)"/>
      <ellipse class="cls-2" cx="81.08" cy="106.75" rx="3.77" ry="2.87" transform="translate(-49.63 136.47) rotate(-65.59)"/>
      <ellipse class="cls-2" cx="81.16" cy="106.71" rx="3.77" ry="2.87" transform="translate(-49.55 136.52) rotate(-65.59)"/>
      <ellipse class="cls-2" cx="81.25" cy="106.68" rx="3.78" ry="2.88" transform="translate(-49.47 136.58) rotate(-65.59)"/>
      <ellipse class="cls-2" cx="81.34" cy="106.64" rx="3.78" ry="2.88" transform="translate(-49.39 136.64) rotate(-65.59)"/>
      <ellipse class="cls-2" cx="81.42" cy="106.61" rx="3.79" ry="2.89" transform="translate(-49.3 136.7) rotate(-65.59)"/>
      <ellipse class="cls-2" cx="81.51" cy="106.57" rx="3.8" ry="2.89" transform="translate(-49.22 136.76) rotate(-65.59)"/>
      <ellipse class="cls-2" cx="81.59" cy="106.54" rx="3.8" ry="2.9" transform="translate(-49.14 136.81) rotate(-65.59)"/>
      <ellipse class="cls-2" cx="81.68" cy="106.5" rx="3.81" ry="2.9" transform="translate(-49.05 136.87) rotate(-65.59)"/>
      <ellipse class="cls-2" cx="81.77" cy="106.47" rx="3.82" ry="2.91" transform="translate(-48.97 136.93) rotate(-65.59)"/>
      <ellipse class="cls-2" cx="81.85" cy="106.43" rx="3.82" ry="2.91" transform="translate(-48.89 136.99) rotate(-65.59)"/>
      <ellipse class="cls-2" cx="81.94" cy="106.39" rx="3.83" ry="2.92" transform="translate(-48.81 137.04) rotate(-65.59)"/>
      <ellipse class="cls-2" cx="82.02" cy="106.36" rx="3.83" ry="2.92" transform="translate(-48.72 137.1) rotate(-65.59)"/>
      <ellipse class="cls-2" cx="82.11" cy="106.32" rx="3.84" ry="2.93" transform="translate(-48.64 137.16) rotate(-65.59)"/>
      <ellipse class="cls-2" cx="82.2" cy="106.29" rx="3.85" ry="2.93" transform="translate(-48.56 137.22) rotate(-65.59)"/>
      <ellipse class="cls-2" cx="82.28" cy="106.25" rx="3.85" ry="2.94" transform="translate(-48.48 137.27) rotate(-65.59)"/>
      <ellipse class="cls-2" cx="82.37" cy="106.22" rx="3.86" ry="2.94" transform="translate(-48.39 137.33) rotate(-65.59)"/>
      <ellipse class="cls-2" cx="82.45" cy="106.18" rx="3.87" ry="2.95" transform="translate(-48.31 137.39) rotate(-65.59)"/>
      <ellipse class="cls-2" cx="82.54" cy="106.15" rx="3.87" ry="2.95" transform="translate(-48.23 137.45) rotate(-65.59)"/>
      <ellipse class="cls-2" cx="82.63" cy="106.11" rx="3.88" ry="2.96" transform="translate(-48.15 137.5) rotate(-65.59)"/>
      <ellipse class="cls-2" cx="82.71" cy="106.08" rx="3.88" ry="2.96" transform="translate(-48.06 137.56) rotate(-65.59)"/>
      <ellipse class="cls-2" cx="82.8" cy="106.04" rx="3.89" ry="2.96" transform="translate(-47.98 137.62) rotate(-65.59)"/>
      <ellipse class="cls-2" cx="82.88" cy="106.01" rx="3.9" ry="2.97" transform="translate(-47.9 137.68) rotate(-65.59)"/>
      <ellipse class="cls-2" cx="82.97" cy="105.97" rx="3.9" ry="2.97" transform="translate(-47.82 137.73) rotate(-65.59)"/>
      <ellipse class="cls-2" cx="83.06" cy="105.94" rx="3.91" ry="2.98" transform="translate(-47.73 137.79) rotate(-65.59)"/>
      <ellipse class="cls-2" cx="83.14" cy="105.9" rx="3.92" ry="2.98" transform="translate(-47.65 137.85) rotate(-65.59)"/>
      <ellipse class="cls-2" cx="83.23" cy="105.86" rx="3.92" ry="2.99" transform="translate(-47.57 137.91) rotate(-65.59)"/>
      <ellipse class="cls-2" cx="83.31" cy="105.83" rx="3.93" ry="2.99" transform="translate(-47.48 137.96) rotate(-65.59)"/>
      <ellipse class="cls-2" cx="83.4" cy="105.79" rx="3.94" ry="3" transform="translate(-47.4 138.02) rotate(-65.59)"/>
      <ellipse class="cls-2" cx="83.49" cy="105.76" rx="3.94" ry="3" transform="translate(-47.32 138.08) rotate(-65.59)"/>
      <ellipse class="cls-2" cx="83.57" cy="105.72" rx="3.95" ry="3.01" transform="translate(-47.24 138.14) rotate(-65.59)"/>
      <ellipse class="cls-2" cx="83.66" cy="105.69" rx="3.95" ry="3.01" transform="translate(-47.15 138.19) rotate(-65.59)"/>
      <ellipse class="cls-2" cx="83.74" cy="105.65" rx="3.96" ry="3.02" transform="translate(-47.07 138.25) rotate(-65.59)"/>
      <ellipse class="cls-2" cx="83.83" cy="105.62" rx="3.97" ry="3.02" transform="translate(-46.99 138.31) rotate(-65.59)"/>
      <ellipse class="cls-2" cx="83.92" cy="105.58" rx="3.97" ry="3.03" transform="translate(-46.91 138.37) rotate(-65.59)"/>
      <ellipse class="cls-2" cx="84" cy="105.55" rx="3.98" ry="3.03" transform="translate(-46.82 138.43) rotate(-65.59)"/>
      <ellipse class="cls-2" cx="84.09" cy="105.51" rx="3.99" ry="3.04" transform="translate(-46.74 138.48) rotate(-65.59)"/>
      <ellipse class="cls-2" cx="84.17" cy="105.48" rx="3.99" ry="3.04" transform="translate(-46.66 138.54) rotate(-65.59)"/>
      <ellipse class="cls-2" cx="84.26" cy="105.44" rx="4" ry="3.05" transform="translate(-46.58 138.6) rotate(-65.59)"/>
      <ellipse class="cls-2" cx="84.35" cy="105.41" rx="4" ry="3.05" transform="translate(-46.49 138.66) rotate(-65.59)"/>
      <ellipse class="cls-2" cx="84.43" cy="105.37" rx="4.01" ry="3.06" transform="translate(-46.41 138.71) rotate(-65.59)"/>
      <ellipse class="cls-2" cx="84.52" cy="105.33" rx="4.02" ry="3.06" transform="translate(-46.33 138.77) rotate(-65.59)"/>
      <ellipse class="cls-2" cx="84.6" cy="105.3" rx="4.02" ry="3.07" transform="translate(-46.25 138.83) rotate(-65.59)"/>
      <ellipse class="cls-2" cx="84.69" cy="105.26" rx="4.03" ry="3.07" transform="translate(-46.16 138.89) rotate(-65.59)"/>
      <ellipse class="cls-2" cx="84.78" cy="105.23" rx="4.04" ry="3.07" transform="translate(-46.08 138.94) rotate(-65.59)"/>
      <ellipse class="cls-2" cx="84.86" cy="105.19" rx="4.04" ry="3.08" transform="translate(-46 139) rotate(-65.59)"/>
      <ellipse class="cls-2" cx="84.95" cy="105.16" rx="4.05" ry="3.08" transform="translate(-45.92 139.06) rotate(-65.59)"/>
      <ellipse class="cls-2" cx="85.03" cy="105.12" rx="4.05" ry="3.09" transform="translate(-45.83 139.12) rotate(-65.59)"/>
      <ellipse class="cls-2" cx="85.12" cy="105.09" rx="4.06" ry="3.09" transform="translate(-45.75 139.17) rotate(-65.59)"/>
      <ellipse class="cls-2" cx="85.21" cy="105.05" rx="4.07" ry="3.1" transform="translate(-45.67 139.23) rotate(-65.59)"/>
      <ellipse class="cls-2" cx="85.29" cy="105.02" rx="4.07" ry="3.1" transform="translate(-45.58 139.29) rotate(-65.59)"/>
      <ellipse class="cls-2" cx="85.38" cy="104.98" rx="4.08" ry="3.11" transform="translate(-45.5 139.35) rotate(-65.59)"/>
      <ellipse class="cls-2" cx="85.46" cy="104.95" rx="4.09" ry="3.11" transform="translate(-45.42 139.4) rotate(-65.59)"/>
      <ellipse class="cls-2" cx="85.55" cy="104.91" rx="4.09" ry="3.12" transform="translate(-45.34 139.46) rotate(-65.59)"/>
      <ellipse class="cls-2" cx="85.64" cy="104.88" rx="4.1" ry="3.12" transform="translate(-45.25 139.52) rotate(-65.59)"/>
      <ellipse class="cls-2" cx="85.72" cy="104.84" rx="4.1" ry="3.13" transform="translate(-45.17 139.58) rotate(-65.59)"/>
      <ellipse class="cls-2" cx="85.81" cy="104.8" rx="4.11" ry="3.13" transform="translate(-45.09 139.63) rotate(-65.59)"/>
      <ellipse class="cls-2" cx="85.89" cy="104.77" rx="4.12" ry="3.14" transform="translate(-45.01 139.69) rotate(-65.59)"/>
      <ellipse class="cls-2" cx="85.98" cy="104.73" rx="4.12" ry="3.14" transform="translate(-44.92 139.75) rotate(-65.59)"/>
      <ellipse class="cls-2" cx="86.07" cy="104.7" rx="4.13" ry="3.15" transform="translate(-44.84 139.81) rotate(-65.59)"/>
      <ellipse class="cls-2" cx="86.15" cy="104.66" rx="4.14" ry="3.15" transform="translate(-44.76 139.86) rotate(-65.59)"/>
      <ellipse class="cls-2" cx="86.24" cy="104.63" rx="4.14" ry="3.16" transform="translate(-44.68 139.92) rotate(-65.59)"/>
      <ellipse class="cls-2" cx="86.32" cy="104.59" rx="4.15" ry="3.16" transform="translate(-44.59 139.98) rotate(-65.59)"/>
      <ellipse class="cls-2" cx="86.41" cy="104.56" rx="4.15" ry="3.17" transform="translate(-44.51 140.04) rotate(-65.59)"/>
      <ellipse class="cls-2" cx="86.5" cy="104.52" rx="4.16" ry="3.17" transform="translate(-44.43 140.1) rotate(-65.59)"/>
      <ellipse class="cls-2" cx="86.58" cy="104.49" rx="4.17" ry="3.18" transform="translate(-44.35 140.15) rotate(-65.59)"/>
      <ellipse class="cls-2" cx="86.67" cy="104.45" rx="4.17" ry="3.18" transform="translate(-44.26 140.21) rotate(-65.59)"/>
      <ellipse class="cls-2" cx="86.75" cy="104.42" rx="4.18" ry="3.18" transform="translate(-44.18 140.27) rotate(-65.59)"/>
      <ellipse class="cls-2" cx="86.84" cy="104.38" rx="4.19" ry="3.19" transform="translate(-44.1 140.33) rotate(-65.59)"/>
      <ellipse class="cls-2" cx="86.93" cy="104.35" rx="4.19" ry="3.19" transform="translate(-44.01 140.38) rotate(-65.59)"/>
      <ellipse class="cls-2" cx="87.01" cy="104.31" rx="4.2" ry="3.2" transform="translate(-43.93 140.44) rotate(-65.59)"/>
      <ellipse class="cls-2" cx="87.1" cy="104.27" rx="4.2" ry="3.2" transform="translate(-43.85 140.5) rotate(-65.59)"/>
      <ellipse class="cls-2" cx="87.18" cy="104.24" rx="4.21" ry="3.21" transform="translate(-43.77 140.56) rotate(-65.59)"/>
      <ellipse class="cls-2" cx="87.27" cy="104.2" rx="4.22" ry="3.21" transform="translate(-43.68 140.61) rotate(-65.59)"/>
      <ellipse class="cls-2" cx="87.36" cy="104.17" rx="4.22" ry="3.22" transform="translate(-43.6 140.67) rotate(-65.59)"/>
      <ellipse class="cls-2" cx="87.44" cy="104.13" rx="4.23" ry="3.22" transform="translate(-43.52 140.73) rotate(-65.59)"/>
      <ellipse class="cls-2" cx="87.53" cy="104.1" rx="4.24" ry="3.23" transform="translate(-43.44 140.79) rotate(-65.59)"/>
      <ellipse class="cls-2" cx="87.61" cy="104.06" rx="4.24" ry="3.23" transform="translate(-43.35 140.84) rotate(-65.59)"/>
      <ellipse class="cls-2" cx="87.7" cy="104.03" rx="4.25" ry="3.24" transform="translate(-43.27 140.9) rotate(-65.59)"/>
      <ellipse class="cls-2" cx="87.79" cy="103.99" rx="4.26" ry="3.24" transform="translate(-43.19 140.96) rotate(-65.59)"/>
      <ellipse class="cls-2" cx="87.87" cy="103.96" rx="4.26" ry="3.25" transform="translate(-43.11 141.02) rotate(-65.59)"/>
      <ellipse class="cls-2" cx="87.96" cy="103.92" rx="4.27" ry="3.25" transform="translate(-43.02 141.07) rotate(-65.59)"/>
      <ellipse class="cls-2" cx="88.04" cy="103.89" rx="4.27" ry="3.26" transform="translate(-42.94 141.13) rotate(-65.59)"/>
      <ellipse class="cls-2" cx="88.13" cy="103.85" rx="4.28" ry="3.26" transform="translate(-42.86 141.19) rotate(-65.59)"/>
      <ellipse class="cls-2" cx="88.22" cy="103.82" rx="4.29" ry="3.27" transform="translate(-42.78 141.25) rotate(-65.59)"/>
      <ellipse class="cls-2" cx="88.3" cy="103.78" rx="4.29" ry="3.27" transform="translate(-42.69 141.3) rotate(-65.59)"/>
      <ellipse class="cls-2" cx="88.39" cy="103.75" rx="4.3" ry="3.28" transform="translate(-42.61 141.36) rotate(-65.59)"/>
      <ellipse class="cls-2" cx="88.47" cy="103.71" rx="4.31" ry="3.28" transform="translate(-42.53 141.42) rotate(-65.59)"/>
      <ellipse class="cls-2" cx="88.56" cy="103.67" rx="4.31" ry="3.28" transform="translate(-42.44 141.48) rotate(-65.59)"/>
      <ellipse class="cls-2" cx="88.65" cy="103.64" rx="4.32" ry="3.29" transform="translate(-42.36 141.53) rotate(-65.59)"/>
      <ellipse class="cls-2" cx="88.73" cy="103.6" rx="4.32" ry="3.29" transform="translate(-42.28 141.59) rotate(-65.59)"/>
      <ellipse class="cls-2" cx="88.82" cy="103.57" rx="4.33" ry="3.3" transform="translate(-42.2 141.65) rotate(-65.59)"/>
      <ellipse class="cls-2" cx="88.9" cy="103.53" rx="4.34" ry="3.3" transform="translate(-42.11 141.71) rotate(-65.59)"/>
      <ellipse class="cls-2" cx="88.99" cy="103.5" rx="4.34" ry="3.31" transform="translate(-42.03 141.77) rotate(-65.59)"/>
      <ellipse class="cls-2" cx="89.08" cy="103.46" rx="4.35" ry="3.31" transform="translate(-41.95 141.82) rotate(-65.59)"/>
      <ellipse class="cls-2" cx="89.16" cy="103.43" rx="4.36" ry="3.32" transform="translate(-41.87 141.88) rotate(-65.59)"/>
      <ellipse class="cls-2" cx="89.25" cy="103.39" rx="4.36" ry="3.32" transform="translate(-41.78 141.94) rotate(-65.59)"/>
      <ellipse class="cls-2" cx="89.33" cy="103.36" rx="4.37" ry="3.33" transform="translate(-41.7 142) rotate(-65.59)"/>
      <ellipse class="cls-2" cx="89.42" cy="103.32" rx="4.37" ry="3.33" transform="translate(-41.62 142.05) rotate(-65.59)"/>
      <ellipse class="cls-2" cx="89.51" cy="103.29" rx="4.38" ry="3.34" transform="translate(-41.54 142.11) rotate(-65.59)"/>
      <ellipse class="cls-2" cx="89.59" cy="103.25" rx="4.39" ry="3.34" transform="translate(-41.45 142.17) rotate(-65.59)"/>
      <ellipse class="cls-2" cx="89.68" cy="103.22" rx="4.39" ry="3.35" transform="translate(-41.37 142.23) rotate(-65.59)"/>
      <ellipse class="cls-2" cx="89.76" cy="103.18" rx="4.4" ry="3.35" transform="translate(-41.29 142.28) rotate(-65.59)"/>
      <ellipse class="cls-2" cx="89.85" cy="103.14" rx="4.41" ry="3.36" transform="translate(-41.21 142.34) rotate(-65.59)"/>
      <ellipse class="cls-2" cx="89.94" cy="103.11" rx="4.41" ry="3.36" transform="translate(-41.12 142.4) rotate(-65.59)"/>
      <ellipse class="cls-2" cx="90.02" cy="103.07" rx="4.42" ry="3.37" transform="translate(-41.04 142.46) rotate(-65.59)"/>
      <ellipse class="cls-2" cx="90.11" cy="103.04" rx="4.42" ry="3.37" transform="translate(-40.96 142.51) rotate(-65.59)"/>
      <ellipse class="cls-2" cx="90.19" cy="103" rx="4.43" ry="3.38" transform="translate(-40.87 142.57) rotate(-65.59)"/>
      <ellipse class="cls-2" cx="90.28" cy="102.97" rx="4.44" ry="3.38" transform="translate(-40.79 142.63) rotate(-65.59)"/>
      <ellipse class="cls-2" cx="90.37" cy="102.93" rx="4.44" ry="3.39" transform="translate(-40.71 142.69) rotate(-65.59)"/>
      <ellipse class="cls-2" cx="90.45" cy="102.9" rx="4.45" ry="3.39" transform="translate(-40.63 142.74) rotate(-65.59)"/>
      <ellipse class="cls-2" cx="90.54" cy="102.86" rx="4.46" ry="3.39" transform="translate(-40.54 142.8) rotate(-65.59)"/>
      <ellipse class="cls-2" cx="90.62" cy="102.83" rx="4.46" ry="3.4" transform="translate(-40.46 142.86) rotate(-65.59)"/>
      <ellipse class="cls-2" cx="90.71" cy="102.79" rx="4.47" ry="3.4" transform="translate(-40.38 142.92) rotate(-65.59)"/>
      <ellipse class="cls-2" cx="90.8" cy="102.76" rx="4.47" ry="3.41" transform="translate(-40.3 142.97) rotate(-65.59)"/>
      <ellipse class="cls-2" cx="90.88" cy="102.72" rx="4.48" ry="3.41" transform="translate(-40.21 143.03) rotate(-65.59)"/>
      <ellipse class="cls-2" cx="90.97" cy="102.69" rx="4.49" ry="3.42" transform="translate(-40.13 143.09) rotate(-65.59)"/>
      <ellipse class="cls-2" cx="91.05" cy="102.65" rx="4.49" ry="3.42" transform="translate(-40.05 143.15) rotate(-65.59)"/>
      <ellipse class="cls-2" cx="91.14" cy="102.61" rx="4.5" ry="3.43" transform="translate(-39.97 143.2) rotate(-65.59)"/>
    </g>
    <g>
      <ellipse class="cls-2" cx="63.91" cy="120.28" rx="3.05" ry="2.36" transform="translate(-71.69 133.15) rotate(-67.44)"/>
      <ellipse class="cls-2" cx="64" cy="120.25" rx="3.05" ry="2.36" transform="translate(-71.6 133.21) rotate(-67.44)"/>
      <ellipse class="cls-2" cx="64.08" cy="120.21" rx="3.06" ry="2.37" transform="translate(-71.52 133.27) rotate(-67.44)"/>
      <ellipse class="cls-2" cx="64.17" cy="120.18" rx="3.07" ry="2.37" transform="translate(-71.43 133.33) rotate(-67.44)"/>
      <ellipse class="cls-2" cx="64.26" cy="120.14" rx="3.07" ry="2.38" transform="translate(-71.35 133.39) rotate(-67.44)"/>
      <ellipse class="cls-2" cx="64.34" cy="120.11" rx="3.08" ry="2.38" transform="translate(-71.26 133.44) rotate(-67.44)"/>
      <ellipse class="cls-2" cx="64.43" cy="120.07" rx="3.08" ry="2.39" transform="translate(-71.18 133.5) rotate(-67.44)"/>
      <ellipse class="cls-2" cx="64.51" cy="120.04" rx="3.09" ry="2.39" transform="translate(-71.09 133.56) rotate(-67.44)"/>
      <ellipse class="cls-2" cx="64.6" cy="120.01" rx="3.1" ry="2.4" transform="translate(-71.01 133.62) rotate(-67.44)"/>
      <ellipse class="cls-2" cx="64.69" cy="119.97" rx="3.1" ry="2.4" transform="translate(-70.92 133.68) rotate(-67.44)"/>
      <ellipse class="cls-2" cx="64.77" cy="119.94" rx="3.11" ry="2.41" transform="translate(-70.84 133.73) rotate(-67.44)"/>
      <ellipse class="cls-2" cx="64.86" cy="119.9" rx="3.12" ry="2.41" transform="translate(-70.75 133.79) rotate(-67.44)"/>
      <ellipse class="cls-2" cx="64.94" cy="119.87" rx="3.12" ry="2.42" transform="translate(-70.66 133.85) rotate(-67.44)"/>
      <ellipse class="cls-2" cx="65.03" cy="119.83" rx="3.13" ry="2.42" transform="translate(-70.58 133.91) rotate(-67.44)"/>
      <ellipse class="cls-2" cx="65.12" cy="119.8" rx="3.14" ry="2.43" transform="translate(-70.49 133.97) rotate(-67.44)"/>
      <ellipse class="cls-2" cx="65.2" cy="119.76" rx="3.14" ry="2.43" transform="translate(-70.41 134.02) rotate(-67.44)"/>
      <ellipse class="cls-2" cx="65.29" cy="119.73" rx="3.15" ry="2.44" transform="translate(-70.32 134.08) rotate(-67.44)"/>
      <ellipse class="cls-2" cx="65.38" cy="119.69" rx="3.15" ry="2.44" transform="translate(-70.24 134.14) rotate(-67.44)"/>
      <ellipse class="cls-2" cx="65.46" cy="119.66" rx="3.16" ry="2.44" transform="translate(-70.15 134.2) rotate(-67.44)"/>
      <ellipse class="cls-2" cx="65.55" cy="119.62" rx="3.17" ry="2.45" transform="translate(-70.07 134.26) rotate(-67.44)"/>
      <ellipse class="cls-2" cx="65.63" cy="119.59" rx="3.17" ry="2.45" transform="translate(-69.98 134.32) rotate(-67.44)"/>
      <ellipse class="cls-2" cx="65.72" cy="119.55" rx="3.18" ry="2.46" transform="translate(-69.9 134.37) rotate(-67.44)"/>
      <ellipse class="cls-2" cx="65.81" cy="119.52" rx="3.19" ry="2.46" transform="translate(-69.81 134.43) rotate(-67.44)"/>
      <ellipse class="cls-2" cx="65.89" cy="119.48" rx="3.19" ry="2.47" transform="translate(-69.73 134.49) rotate(-67.44)"/>
      <ellipse class="cls-2" cx="65.98" cy="119.45" rx="3.2" ry="2.47" transform="translate(-69.64 134.55) rotate(-67.44)"/>
      <ellipse class="cls-2" cx="66.06" cy="119.41" rx="3.21" ry="2.48" transform="translate(-69.56 134.61) rotate(-67.44)"/>
      <ellipse class="cls-2" cx="66.15" cy="119.38" rx="3.21" ry="2.48" transform="translate(-69.47 134.66) rotate(-67.44)"/>
      <ellipse class="cls-2" cx="66.24" cy="119.34" rx="3.22" ry="2.49" transform="translate(-69.38 134.72) rotate(-67.44)"/>
      <ellipse class="cls-2" cx="66.32" cy="119.31" rx="3.22" ry="2.49" transform="translate(-69.3 134.78) rotate(-67.44)"/>
      <ellipse class="cls-2" cx="66.41" cy="119.27" rx="3.23" ry="2.5" transform="translate(-69.21 134.84) rotate(-67.44)"/>
      <ellipse class="cls-2" cx="66.5" cy="119.24" rx="3.24" ry="2.5" transform="translate(-69.13 134.9) rotate(-67.44)"/>
      <ellipse class="cls-2" cx="66.58" cy="119.2" rx="3.24" ry="2.51" transform="translate(-69.04 134.95) rotate(-67.44)"/>
      <ellipse class="cls-2" cx="66.67" cy="119.17" rx="3.25" ry="2.51" transform="translate(-68.96 135.01) rotate(-67.44)"/>
      <ellipse class="cls-2" cx="66.75" cy="119.13" rx="3.26" ry="2.52" transform="translate(-68.87 135.07) rotate(-67.44)"/>
      <ellipse class="cls-2" cx="66.84" cy="119.1" rx="3.26" ry="2.52" transform="translate(-68.79 135.13) rotate(-67.44)"/>
      <ellipse class="cls-2" cx="66.93" cy="119.06" rx="3.27" ry="2.53" transform="translate(-68.7 135.19) rotate(-67.44)"/>
      <ellipse class="cls-2" cx="67.01" cy="119.03" rx="3.27" ry="2.53" transform="translate(-68.62 135.24) rotate(-67.44)"/>
      <ellipse class="cls-2" cx="67.1" cy="118.99" rx="3.28" ry="2.54" transform="translate(-68.53 135.3) rotate(-67.44)"/>
      <ellipse class="cls-2" cx="67.18" cy="118.96" rx="3.29" ry="2.54" transform="translate(-68.45 135.36) rotate(-67.44)"/>
      <ellipse class="cls-2" cx="67.27" cy="118.92" rx="3.29" ry="2.55" transform="translate(-68.36 135.42) rotate(-67.44)"/>
      <ellipse class="cls-2" cx="67.36" cy="118.89" rx="3.3" ry="2.55" transform="translate(-68.28 135.48) rotate(-67.44)"/>
      <ellipse class="cls-2" cx="67.44" cy="118.85" rx="3.31" ry="2.56" transform="translate(-68.19 135.53) rotate(-67.44)"/>
      <ellipse class="cls-2" cx="67.53" cy="118.82" rx="3.31" ry="2.56" transform="translate(-68.1 135.59) rotate(-67.44)"/>
      <ellipse class="cls-2" cx="67.62" cy="118.78" rx="3.32" ry="2.57" transform="translate(-68.02 135.65) rotate(-67.44)"/>
      <ellipse class="cls-2" cx="67.7" cy="118.75" rx="3.33" ry="2.57" transform="translate(-67.93 135.71) rotate(-67.44)"/>
      <ellipse class="cls-2" cx="67.79" cy="118.71" rx="3.33" ry="2.58" transform="translate(-67.85 135.77) rotate(-67.44)"/>
      <ellipse class="cls-2" cx="67.87" cy="118.68" rx="3.34" ry="2.58" transform="translate(-67.76 135.82) rotate(-67.44)"/>
      <ellipse class="cls-2" cx="67.96" cy="118.64" rx="3.34" ry="2.59" transform="translate(-67.68 135.88) rotate(-67.44)"/>
      <ellipse class="cls-2" cx="68.05" cy="118.61" rx="3.35" ry="2.59" transform="translate(-67.59 135.94) rotate(-67.44)"/>
      <ellipse class="cls-2" cx="68.13" cy="118.57" rx="3.36" ry="2.6" transform="translate(-67.51 136) rotate(-67.44)"/>
      <ellipse class="cls-2" cx="68.22" cy="118.54" rx="3.36" ry="2.6" transform="translate(-67.42 136.06) rotate(-67.44)"/>
      <ellipse class="cls-2" cx="68.3" cy="118.5" rx="3.37" ry="2.61" transform="translate(-67.34 136.11) rotate(-67.44)"/>
      <ellipse class="cls-2" cx="68.39" cy="118.47" rx="3.38" ry="2.61" transform="translate(-67.25 136.17) rotate(-67.44)"/>
      <ellipse class="cls-2" cx="68.48" cy="118.43" rx="3.38" ry="2.62" transform="translate(-67.17 136.23) rotate(-67.44)"/>
      <ellipse class="cls-2" cx="68.56" cy="118.4" rx="3.39" ry="2.62" transform="translate(-67.08 136.29) rotate(-67.44)"/>
      <ellipse class="cls-2" cx="68.65" cy="118.36" rx="3.39" ry="2.63" transform="translate(-67 136.35) rotate(-67.44)"/>
      <ellipse class="cls-2" cx="68.74" cy="118.33" rx="3.4" ry="2.63" transform="translate(-66.91 136.4) rotate(-67.44)"/>
      <ellipse class="cls-2" cx="68.82" cy="118.29" rx="3.41" ry="2.64" transform="translate(-66.82 136.46) rotate(-67.44)"/>
      <ellipse class="cls-2" cx="68.91" cy="118.26" rx="3.41" ry="2.64" transform="translate(-66.74 136.52) rotate(-67.44)"/>
      <ellipse class="cls-2" cx="68.99" cy="118.22" rx="3.42" ry="2.65" transform="translate(-66.65 136.58) rotate(-67.44)"/>
      <ellipse class="cls-2" cx="69.08" cy="118.19" rx="3.43" ry="2.65" transform="translate(-66.57 136.64) rotate(-67.44)"/>
      <ellipse class="cls-2" cx="69.17" cy="118.15" rx="3.43" ry="2.66" transform="translate(-66.48 136.69) rotate(-67.44)"/>
      <ellipse class="cls-2" cx="69.25" cy="118.12" rx="3.44" ry="2.66" transform="translate(-66.4 136.75) rotate(-67.44)"/>
      <ellipse class="cls-2" cx="69.34" cy="118.08" rx="3.45" ry="2.66" transform="translate(-66.31 136.81) rotate(-67.44)"/>
      <ellipse class="cls-2" cx="69.42" cy="118.05" rx="3.45" ry="2.67" transform="translate(-66.23 136.87) rotate(-67.44)"/>
      <ellipse class="cls-2" cx="69.51" cy="118.01" rx="3.46" ry="2.67" transform="translate(-66.14 136.93) rotate(-67.44)"/>
      <ellipse class="cls-2" cx="69.6" cy="117.98" rx="3.46" ry="2.68" transform="translate(-66.06 136.98) rotate(-67.44)"/>
      <ellipse class="cls-2" cx="69.68" cy="117.95" rx="3.47" ry="2.68" transform="translate(-65.97 137.04) rotate(-67.44)"/>
      <ellipse class="cls-2" cx="69.77" cy="117.91" rx="3.48" ry="2.69" transform="translate(-65.89 137.1) rotate(-67.44)"/>
      <ellipse class="cls-2" cx="69.86" cy="117.88" rx="3.48" ry="2.69" transform="translate(-65.8 137.16) rotate(-67.44)"/>
      <ellipse class="cls-2" cx="69.94" cy="117.84" rx="3.49" ry="2.7" transform="translate(-65.72 137.22) rotate(-67.44)"/>
      <ellipse class="cls-2" cx="70.03" cy="117.81" rx="3.5" ry="2.7" transform="translate(-65.63 137.27) rotate(-67.44)"/>
      <ellipse class="cls-2" cx="70.11" cy="117.77" rx="3.5" ry="2.71" transform="translate(-65.54 137.33) rotate(-67.44)"/>
      <ellipse class="cls-2" cx="70.2" cy="117.74" rx="3.51" ry="2.71" transform="translate(-65.46 137.39) rotate(-67.44)"/>
      <ellipse class="cls-2" cx="70.29" cy="117.7" rx="3.51" ry="2.72" transform="translate(-65.37 137.45) rotate(-67.44)"/>
      <ellipse class="cls-2" cx="70.37" cy="117.67" rx="3.52" ry="2.72" transform="translate(-65.29 137.51) rotate(-67.44)"/>
      <ellipse class="cls-2" cx="70.46" cy="117.63" rx="3.53" ry="2.73" transform="translate(-65.2 137.57) rotate(-67.44)"/>
      <ellipse class="cls-2" cx="70.54" cy="117.6" rx="3.53" ry="2.73" transform="translate(-65.12 137.62) rotate(-67.44)"/>
      <ellipse class="cls-2" cx="70.63" cy="117.56" rx="3.54" ry="2.74" transform="translate(-65.03 137.68) rotate(-67.44)"/>
      <ellipse class="cls-2" cx="70.72" cy="117.53" rx="3.55" ry="2.74" transform="translate(-64.95 137.74) rotate(-67.44)"/>
      <ellipse class="cls-2" cx="70.8" cy="117.49" rx="3.55" ry="2.75" transform="translate(-64.86 137.8) rotate(-67.44)"/>
      <ellipse class="cls-2" cx="70.89" cy="117.46" rx="3.56" ry="2.75" transform="translate(-64.78 137.86) rotate(-67.44)"/>
      <ellipse class="cls-2" cx="70.98" cy="117.42" rx="3.57" ry="2.76" transform="translate(-64.69 137.91) rotate(-67.44)"/>
      <ellipse class="cls-2" cx="71.06" cy="117.39" rx="3.57" ry="2.76" transform="translate(-64.61 137.97) rotate(-67.44)"/>
      <ellipse class="cls-2" cx="71.15" cy="117.35" rx="3.58" ry="2.77" transform="translate(-64.52 138.03) rotate(-67.44)"/>
      <ellipse class="cls-2" cx="71.23" cy="117.32" rx="3.58" ry="2.77" transform="translate(-64.44 138.09) rotate(-67.44)"/>
      <ellipse class="cls-2" cx="71.32" cy="117.28" rx="3.59" ry="2.78" transform="translate(-64.35 138.15) rotate(-67.44)"/>
      <ellipse class="cls-2" cx="71.41" cy="117.25" rx="3.6" ry="2.78" transform="translate(-64.26 138.2) rotate(-67.44)"/>
      <ellipse class="cls-2" cx="71.49" cy="117.21" rx="3.6" ry="2.79" transform="translate(-64.18 138.26) rotate(-67.44)"/>
      <ellipse class="cls-2" cx="71.58" cy="117.18" rx="3.61" ry="2.79" transform="translate(-64.09 138.32) rotate(-67.44)"/>
      <ellipse class="cls-2" cx="71.66" cy="117.14" rx="3.62" ry="2.8" transform="translate(-64.01 138.38) rotate(-67.44)"/>
      <ellipse class="cls-2" cx="71.75" cy="117.11" rx="3.62" ry="2.8" transform="translate(-63.92 138.44) rotate(-67.44)"/>
      <ellipse class="cls-2" cx="71.84" cy="117.07" rx="3.63" ry="2.81" transform="translate(-63.84 138.49) rotate(-67.44)"/>
      <ellipse class="cls-2" cx="71.92" cy="117.04" rx="3.63" ry="2.81" transform="translate(-63.75 138.55) rotate(-67.44)"/>
      <ellipse class="cls-2" cx="72.01" cy="117" rx="3.64" ry="2.82" transform="translate(-63.67 138.61) rotate(-67.44)"/>
      <ellipse class="cls-2" cx="72.1" cy="116.97" rx="3.65" ry="2.82" transform="translate(-63.58 138.67) rotate(-67.44)"/>
      <ellipse class="cls-2" cx="72.18" cy="116.93" rx="3.65" ry="2.83" transform="translate(-63.5 138.73) rotate(-67.44)"/>
      <ellipse class="cls-2" cx="72.27" cy="116.9" rx="3.66" ry="2.83" transform="translate(-63.41 138.78) rotate(-67.44)"/>
      <ellipse class="cls-2" cx="72.35" cy="116.86" rx="3.67" ry="2.84" transform="translate(-63.33 138.84) rotate(-67.44)"/>
      <ellipse class="cls-2" cx="72.44" cy="116.83" rx="3.67" ry="2.84" transform="translate(-63.24 138.9) rotate(-67.44)"/>
      <ellipse class="cls-2" cx="72.53" cy="116.79" rx="3.68" ry="2.85" transform="translate(-63.16 138.96) rotate(-67.44)"/>
      <ellipse class="cls-2" cx="72.61" cy="116.76" rx="3.69" ry="2.85" transform="translate(-63.07 139.02) rotate(-67.44)"/>
      <ellipse class="cls-2" cx="72.7" cy="116.72" rx="3.69" ry="2.86" transform="translate(-62.98 139.07) rotate(-67.44)"/>
      <ellipse class="cls-2" cx="72.78" cy="116.69" rx="3.7" ry="2.86" transform="translate(-62.9 139.13) rotate(-67.44)"/>
      <ellipse class="cls-2" cx="72.87" cy="116.65" rx="3.7" ry="2.87" transform="translate(-62.81 139.19) rotate(-67.44)"/>
      <ellipse class="cls-2" cx="72.96" cy="116.62" rx="3.71" ry="2.87" transform="translate(-62.73 139.25) rotate(-67.44)"/>
      <ellipse class="cls-2" cx="73.04" cy="116.58" rx="3.72" ry="2.88" transform="translate(-62.64 139.31) rotate(-67.44)"/>
      <ellipse class="cls-2" cx="73.13" cy="116.55" rx="3.72" ry="2.88" transform="translate(-62.56 139.36) rotate(-67.44)"/>
      <ellipse class="cls-2" cx="73.22" cy="116.51" rx="3.73" ry="2.89" transform="translate(-62.47 139.42) rotate(-67.44)"/>
      <ellipse class="cls-2" cx="73.3" cy="116.48" rx="3.74" ry="2.89" transform="translate(-62.39 139.48) rotate(-67.44)"/>
      <ellipse class="cls-2" cx="73.39" cy="116.44" rx="3.74" ry="2.89" transform="translate(-62.3 139.54) rotate(-67.44)"/>
      <ellipse class="cls-2" cx="73.47" cy="116.41" rx="3.75" ry="2.9" transform="translate(-62.22 139.6) rotate(-67.44)"/>
      <ellipse class="cls-2" cx="73.56" cy="116.37" rx="3.76" ry="2.9" transform="translate(-62.13 139.65) rotate(-67.44)"/>
      <ellipse class="cls-2" cx="73.65" cy="116.34" rx="3.76" ry="2.91" transform="translate(-62.05 139.71) rotate(-67.44)"/>
      <ellipse class="cls-2" cx="73.73" cy="116.3" rx="3.77" ry="2.91" transform="translate(-61.96 139.77) rotate(-67.44)"/>
      <ellipse class="cls-2" cx="73.82" cy="116.27" rx="3.77" ry="2.92" transform="translate(-61.88 139.83) rotate(-67.44)"/>
      <ellipse class="cls-2" cx="73.9" cy="116.23" rx="3.78" ry="2.92" transform="translate(-61.79 139.89) rotate(-67.44)"/>
      <ellipse class="cls-2" cx="73.99" cy="116.2" rx="3.79" ry="2.93" transform="translate(-61.7 139.94) rotate(-67.44)"/>
      <ellipse class="cls-2" cx="74.08" cy="116.16" rx="3.79" ry="2.93" transform="translate(-61.62 140) rotate(-67.44)"/>
      <ellipse class="cls-2" cx="74.16" cy="116.13" rx="3.8" ry="2.94" transform="translate(-61.53 140.06) rotate(-67.44)"/>
      <ellipse class="cls-2" cx="74.25" cy="116.09" rx="3.81" ry="2.94" transform="translate(-61.45 140.12) rotate(-67.44)"/>
      <ellipse class="cls-2" cx="74.34" cy="116.06" rx="3.81" ry="2.95" transform="translate(-61.36 140.18) rotate(-67.44)"/>
      <ellipse class="cls-2" cx="74.42" cy="116.02" rx="3.82" ry="2.95" transform="translate(-61.28 140.23) rotate(-67.44)"/>
      <ellipse class="cls-2" cx="74.51" cy="115.99" rx="3.82" ry="2.96" transform="translate(-61.19 140.29) rotate(-67.44)"/>
      <ellipse class="cls-2" cx="74.59" cy="115.96" rx="3.83" ry="2.96" transform="translate(-61.11 140.35) rotate(-67.44)"/>
      <ellipse class="cls-2" cx="74.68" cy="115.92" rx="3.84" ry="2.97" transform="translate(-61.02 140.41) rotate(-67.44)"/>
      <ellipse class="cls-2" cx="74.77" cy="115.89" rx="3.84" ry="2.97" transform="translate(-60.94 140.47) rotate(-67.44)"/>
      <ellipse class="cls-2" cx="74.85" cy="115.85" rx="3.85" ry="2.98" transform="translate(-60.85 140.53) rotate(-67.44)"/>
      <ellipse class="cls-2" cx="74.94" cy="115.82" rx="3.86" ry="2.98" transform="translate(-60.77 140.58) rotate(-67.44)"/>
      <ellipse class="cls-2" cx="75.02" cy="115.78" rx="3.86" ry="2.99" transform="translate(-60.68 140.64) rotate(-67.44)"/>
      <ellipse class="cls-2" cx="75.11" cy="115.75" rx="3.87" ry="2.99" transform="translate(-60.59 140.7) rotate(-67.44)"/>
      <ellipse class="cls-2" cx="75.2" cy="115.71" rx="3.88" ry="3" transform="translate(-60.51 140.76) rotate(-67.44)"/>
      <ellipse class="cls-2" cx="75.28" cy="115.68" rx="3.88" ry="3" transform="translate(-60.42 140.82) rotate(-67.44)"/>
      <ellipse class="cls-2" cx="75.37" cy="115.64" rx="3.89" ry="3.01" transform="translate(-60.34 140.87) rotate(-67.44)"/>
      <ellipse class="cls-2" cx="75.45" cy="115.61" rx="3.89" ry="3.01" transform="translate(-60.25 140.93) rotate(-67.44)"/>
      <ellipse class="cls-2" cx="75.54" cy="115.57" rx="3.9" ry="3.02" transform="translate(-60.17 140.99) rotate(-67.44)"/>
      <ellipse class="cls-2" cx="75.63" cy="115.54" rx="3.91" ry="3.02" transform="translate(-60.08 141.05) rotate(-67.44)"/>
      <ellipse class="cls-2" cx="75.71" cy="115.5" rx="3.91" ry="3.03" transform="translate(-60 141.11) rotate(-67.44)"/>
      <ellipse class="cls-2" cx="75.8" cy="115.47" rx="3.92" ry="3.03" transform="translate(-59.91 141.16) rotate(-67.44)"/>
      <ellipse class="cls-2" cx="75.89" cy="115.43" rx="3.93" ry="3.04" transform="translate(-59.83 141.22) rotate(-67.44)"/>
      <ellipse class="cls-2" cx="75.97" cy="115.4" rx="3.93" ry="3.04" transform="translate(-59.74 141.28) rotate(-67.44)"/>
      <ellipse class="cls-2" cx="76.06" cy="115.36" rx="3.94" ry="3.05" transform="translate(-59.66 141.34) rotate(-67.44)"/>
      <ellipse class="cls-2" cx="76.14" cy="115.33" rx="3.94" ry="3.05" transform="translate(-59.57 141.4) rotate(-67.44)"/>
      <ellipse class="cls-2" cx="76.23" cy="115.29" rx="3.95" ry="3.06" transform="translate(-59.49 141.45) rotate(-67.44)"/>
      <ellipse class="cls-2" cx="76.32" cy="115.26" rx="3.96" ry="3.06" transform="translate(-59.4 141.51) rotate(-67.44)"/>
      <ellipse class="cls-2" cx="76.4" cy="115.22" rx="3.96" ry="3.07" transform="translate(-59.31 141.57) rotate(-67.44)"/>
      <ellipse class="cls-2" cx="76.49" cy="115.19" rx="3.97" ry="3.07" transform="translate(-59.23 141.63) rotate(-67.44)"/>
      <ellipse class="cls-2" cx="76.57" cy="115.15" rx="3.98" ry="3.08" transform="translate(-59.14 141.69) rotate(-67.44)"/>
      <ellipse class="cls-2" cx="76.66" cy="115.12" rx="3.98" ry="3.08" transform="translate(-59.06 141.74) rotate(-67.44)"/>
      <ellipse class="cls-2" cx="76.75" cy="115.08" rx="3.99" ry="3.09" transform="translate(-58.97 141.8) rotate(-67.44)"/>
      <ellipse class="cls-2" cx="76.83" cy="115.05" rx="4" ry="3.09" transform="translate(-58.89 141.86) rotate(-67.44)"/>
      <ellipse class="cls-2" cx="76.92" cy="115.01" rx="4" ry="3.1" transform="translate(-58.8 141.92) rotate(-67.44)"/>
      <ellipse class="cls-2" cx="77.01" cy="114.98" rx="4.01" ry="3.1" transform="translate(-58.72 141.98) rotate(-67.44)"/>
      <ellipse class="cls-2" cx="77.09" cy="114.94" rx="4.01" ry="3.11" transform="translate(-58.63 142.03) rotate(-67.44)"/>
      <ellipse class="cls-2" cx="77.18" cy="114.91" rx="4.02" ry="3.11" transform="translate(-58.55 142.09) rotate(-67.44)"/>
      <ellipse class="cls-2" cx="77.26" cy="114.87" rx="4.03" ry="3.11" transform="translate(-58.46 142.15) rotate(-67.44)"/>
      <ellipse class="cls-2" cx="77.35" cy="114.84" rx="4.03" ry="3.12" transform="translate(-58.38 142.21) rotate(-67.44)"/>
      <ellipse class="cls-2" cx="77.44" cy="114.8" rx="4.04" ry="3.12" transform="translate(-58.29 142.27) rotate(-67.44)"/>
      <ellipse class="cls-2" cx="77.52" cy="114.77" rx="4.05" ry="3.13" transform="translate(-58.21 142.32) rotate(-67.44)"/>
      <ellipse class="cls-2" cx="77.61" cy="114.73" rx="4.05" ry="3.13" transform="translate(-58.12 142.38) rotate(-67.44)"/>
      <ellipse class="cls-2" cx="77.69" cy="114.7" rx="4.06" ry="3.14" transform="translate(-58.03 142.44) rotate(-67.44)"/>
      <ellipse class="cls-2" cx="77.78" cy="114.66" rx="4.06" ry="3.14" transform="translate(-57.95 142.5) rotate(-67.44)"/>
      <ellipse class="cls-2" cx="77.87" cy="114.63" rx="4.07" ry="3.15" transform="translate(-57.86 142.56) rotate(-67.44)"/>
      <ellipse class="cls-2" cx="77.95" cy="114.59" rx="4.08" ry="3.15" transform="translate(-57.78 142.61) rotate(-67.44)"/>
      <ellipse class="cls-2" cx="78.04" cy="114.56" rx="4.08" ry="3.16" transform="translate(-57.69 142.67) rotate(-67.44)"/>
      <ellipse class="cls-2" cx="78.13" cy="114.52" rx="4.09" ry="3.16" transform="translate(-57.61 142.73) rotate(-67.44)"/>
      <ellipse class="cls-2" cx="78.21" cy="114.49" rx="4.1" ry="3.17" transform="translate(-57.52 142.79) rotate(-67.44)"/>
      <ellipse class="cls-2" cx="78.3" cy="114.45" rx="4.1" ry="3.17" transform="translate(-57.44 142.85) rotate(-67.44)"/>
      <ellipse class="cls-2" cx="78.38" cy="114.42" rx="4.11" ry="3.18" transform="translate(-57.35 142.9) rotate(-67.44)"/>
      <ellipse class="cls-2" cx="78.47" cy="114.38" rx="4.12" ry="3.18" transform="translate(-57.27 142.96) rotate(-67.44)"/>
      <ellipse class="cls-2" cx="78.56" cy="114.35" rx="4.12" ry="3.19" transform="translate(-57.18 143.02) rotate(-67.44)"/>
      <ellipse class="cls-2" cx="78.64" cy="114.31" rx="4.13" ry="3.19" transform="translate(-57.1 143.08) rotate(-67.44)"/>
      <ellipse class="cls-2" cx="78.73" cy="114.28" rx="4.13" ry="3.2" transform="translate(-57.01 143.14) rotate(-67.44)"/>
      <ellipse class="cls-2" cx="78.81" cy="114.24" rx="4.14" ry="3.2" transform="translate(-56.93 143.19) rotate(-67.44)"/>
      <ellipse class="cls-2" cx="78.9" cy="114.21" rx="4.15" ry="3.21" transform="translate(-56.84 143.25) rotate(-67.44)"/>
      <ellipse class="cls-2" cx="78.99" cy="114.17" rx="4.15" ry="3.21" transform="translate(-56.75 143.31) rotate(-67.44)"/>
      <ellipse class="cls-2" cx="79.07" cy="114.14" rx="4.16" ry="3.22" transform="translate(-56.67 143.37) rotate(-67.44)"/>
      <ellipse class="cls-2" cx="79.16" cy="114.1" rx="4.17" ry="3.22" transform="translate(-56.58 143.43) rotate(-67.44)"/>
      <ellipse class="cls-2" cx="79.25" cy="114.07" rx="4.17" ry="3.23" transform="translate(-56.5 143.48) rotate(-67.44)"/>
      <ellipse class="cls-2" cx="79.33" cy="114.03" rx="4.18" ry="3.23" transform="translate(-56.41 143.54) rotate(-67.44)"/>
      <ellipse class="cls-2" cx="79.42" cy="114" rx="4.18" ry="3.24" transform="translate(-56.33 143.6) rotate(-67.44)"/>
      <ellipse class="cls-2" cx="79.5" cy="113.97" rx="4.19" ry="3.24" transform="translate(-56.24 143.66) rotate(-67.44)"/>
      <ellipse class="cls-2" cx="79.59" cy="113.93" rx="4.2" ry="3.25" transform="translate(-56.16 143.72) rotate(-67.44)"/>
      <ellipse class="cls-2" cx="79.68" cy="113.9" rx="4.2" ry="3.25" transform="translate(-56.07 143.78) rotate(-67.44)"/>
      <ellipse class="cls-2" cx="79.76" cy="113.86" rx="4.21" ry="3.26" transform="translate(-55.99 143.83) rotate(-67.44)"/>
      <ellipse class="cls-2" cx="79.85" cy="113.83" rx="4.22" ry="3.26" transform="translate(-55.9 143.89) rotate(-67.44)"/>
      <ellipse class="cls-2" cx="79.93" cy="113.79" rx="4.22" ry="3.27" transform="translate(-55.82 143.95) rotate(-67.44)"/>
      <ellipse class="cls-2" cx="80.02" cy="113.76" rx="4.23" ry="3.27" transform="translate(-55.73 144.01) rotate(-67.44)"/>
      <ellipse class="cls-2" cx="80.11" cy="113.72" rx="4.24" ry="3.28" transform="translate(-55.65 144.07) rotate(-67.44)"/>
      <ellipse class="cls-2" cx="80.19" cy="113.69" rx="4.24" ry="3.28" transform="translate(-55.56 144.12) rotate(-67.44)"/>
    </g>
    <path class="cls-2" d="m75.72,93.67l-45.16,45.37,8.87-1.2,68.8-54c.56-.44.08-1.34-.6-1.1l-31.91,10.92Z"/>
    <text class="cls-5" transform="translate(78.26 155.99) rotate(-26.73)"><tspan x="0" y="0">Г</tspan></text>
    <text class="cls-5" transform="translate(94.61 147.54) rotate(-33.79)"><tspan x="0" y="0">а</tspan></text>
    <text class="cls-5" transform="translate(106.61 139.59) rotate(-41.46)"><tspan x="0" y="0">м</tspan></text>
    <text class="cls-5" transform="translate(121.6 126.05) rotate(-49.9)"><tspan x="0" y="0">б</tspan></text>
    <text class="cls-5" transform="translate(132.46 112.71) rotate(-55.61)"><tspan x="0" y="0">і</tspan></text>
    <text class="cls-5" transform="translate(137.16 105.97) rotate(-60.53)"><tspan x="0" y="0">т</tspan></text>
  </g>
</svg>