<?xml version="1.0" encoding="UTF-8"?>
<svg id="_Шар_2" data-name="Шар 2" xmlns="http://www.w3.org/2000/svg" xmlns:xlink="http://www.w3.org/1999/xlink" viewBox="0 0 176.83 226.1">
  <defs>
    <style>
      .cls-1, .cls-2 {
        fill: #fff;
      }

      .cls-1, .cls-2, .cls-3, .cls-4, .cls-5 {
        stroke-miterlimit: 10;
      }

      .cls-1, .cls-2, .cls-4, .cls-5 {
        stroke: #1d1d1b;
      }

      .cls-1, .cls-4 {
        stroke-width: 1px;
      }

      .cls-2, .cls-3 {
        stroke-width: .28px;
      }

      .cls-3 {
        stroke: #fff;
      }

      .cls-3, .cls-6, .cls-7 {
        fill: #1d1d1b;
      }

      .cls-4 {
        fill: #00a19a;
      }

      .cls-6 {
        font-family: FranklinGothic-Medium, 'Franklin Gothic Medium';
        font-size: 17.76px;
        font-weight: 500;
      }

      .cls-5 {
        fill: url(#Water_8);
        stroke-width: 2.83px;
      }
    </style>
    <linearGradient id="Water_8" data-name="Water 8" x1="36.48" y1="99.14" x2="140.32" y2="99.14" gradientUnits="userSpaceOnUse">
      <stop offset="0" stop-color="#97b8db"/>
      <stop offset=".5" stop-color="#7ba8d2"/>
      <stop offset=".57" stop-color="#6da2ce"/>
      <stop offset=".74" stop-color="#4e96c7"/>
      <stop offset=".89" stop-color="#3b8ec2"/>
      <stop offset="1" stop-color="#358cc1"/>
    </linearGradient>
  </defs>
  <g id="_Шар_6" data-name="Шар 6">
    <polygon class="cls-4" points="88.4 99.14 29.53 160.83 68.9 99.14 88.4 99.14"/>
    <polygon class="cls-1" points="147.28 160.83 88.41 99.14 107.9 99.14 147.28 160.83"/>
    <polygon class="cls-1" points="88.4 99.14 88.4 119.57 29.53 160.83 88.4 99.14"/>
    <polygon class="cls-4" points="147.28 160.83 88.4 119.57 88.4 99.14 88.41 99.14 147.28 160.83"/>
    <polygon class="cls-4" points="88.41 99.36 147.29 37.66 107.91 99.36 88.41 99.36"/>
    <polygon class="cls-1" points="29.53 37.66 88.41 99.36 68.91 99.36 29.53 37.66"/>
    <polygon class="cls-1" points="88.41 99.36 88.41 78.92 147.29 37.66 88.41 99.36"/>
    <polygon class="cls-4" points="29.53 37.66 88.41 78.92 88.41 99.36 88.41 99.36 29.53 37.66"/>
    <polygon class="cls-4" points="88.41 98.67 88.41 197.92 72.73 115.11 88.41 98.67"/>
    <polygon class="cls-4" points="88.42 .09 104.1 82.92 88.42 99.35 88.42 .09"/>
    <polygon class="cls-1" points="88.41 98.67 104.1 115.11 88.41 197.92 88.41 98.67"/>
    <polygon class="cls-1" points="88.42 .09 88.42 99.35 88.41 99.36 72.73 82.92 88.42 .09"/>
    <polygon class="cls-4" points="88.11 99.01 176.73 99.01 102.79 113.02 88.11 99.01"/>
    <polygon class="cls-4" points=".09 99 74.04 85 88.72 99 .09 99"/>
    <polygon class="cls-1" points="88.11 99.01 102.79 85 176.73 99.01 88.11 99.01"/>
    <polygon class="cls-1" points=".09 99 88.72 99 88.72 99.01 74.04 113.02 .09 99"/>
    <ellipse class="cls-5" cx="88.4" cy="99.14" rx="51.92" ry="54.41"/>
    <path class="cls-3" d="m88.4,124.77c-3.49.11-10.17,4.59-13.58,4.59-1.43,0-4.08-.82-6.66-1.77l.5,2.24h40.14l.52-2.35c-2.52.99-5.16,1.88-6.57,1.88-3.57,0-10.61-4.7-14.35-4.59Z"/>
    <path class="cls-3" d="m88.4,122.58c3.74-.11,10.78,4.59,14.35,4.59,1.51,0,4.44-1.02,7.11-2.09l4.44-19.89-25.57-12.32-25.57,12.32,4.47,20.02c2.74,1.03,5.66,1.97,7.19,1.97,3.41,0,10.09-4.48,13.58-4.59Z"/>
    <path class="cls-3" d="m115.57,122.58s-2.69,1.29-5.7,2.5l-.54,2.4c3.22-1.27,6.24-2.71,6.24-2.71v-2.19Z"/>
    <path class="cls-3" d="m61.24,122.58v2.19s3.4,1.53,6.92,2.82l-.53-2.39c-3.32-1.25-6.39-2.62-6.39-2.62Z"/>
    <path class="cls-3" d="m115.57,133.77s-9.6,4.59-12.81,4.59c-3.57,0-10.61-4.7-14.35-4.59-3.49.11-10.17,4.59-13.58,4.59s-13.58-4.59-13.58-4.59v-2.19s10.2,4.59,13.58,4.59,10.09-4.48,13.58-4.59c3.74-.11,10.78,4.59,14.35,4.59,3.22,0,12.81-4.59,12.81-4.59v2.19Z"/>
    <polygon class="cls-3" points="100.3 97.04 100.42 97.04 100.42 80.75 77.07 80.75 77.07 97.04 77.07 97.04 88.68 90.56 100.3 97.04"/>
    <rect class="cls-2" x="79.95" y="83.69" width="7.5" height="5.21"/>
    <rect class="cls-2" x="89.94" y="83.69" width="7.58" height="5.21"/>
    <polygon class="cls-7" points="97.52 77.23 92.18 76.97 90.34 69.2 87.15 69.2 85.31 76.82 79.95 77.23 79.95 78.9 97.52 78.9 97.52 77.23"/>
    <path class="cls-7" d="m96.76,57.82c0-2.02-1.62-3.66-3.63-3.66s-3.63,1.64-3.63,3.66c0,1.11.5,2.09,1.27,2.77-.72.48-1.2,1.31-1.2,2.25,0,.4.09.79.25,1.13-.62.21-1.1.72-1.26,1.37-.79.19-1.37.9-1.37,1.76,0,.53.23,1.01.59,1.34-.08.16-.14.32-.14.51,0,.62.5,1.13,1.12,1.13s1.12-.51,1.12-1.13c0-.09-.03-.17-.05-.26.36-.2.65-.51.81-.89.99-.1,1.77-.93,1.77-1.96,0-.11-.02-.21-.03-.31,1.15-.06,2.11-.85,2.42-1.93.79-.39,1.33-1.2,1.33-2.15,0-.43-.12-.83-.32-1.18.58-.65.94-1.5.94-2.45Z"/>
    <text class="cls-6" transform="translate(30.21 208.06) rotate(28.7) scale(1.04 1)"><tspan x="0" y="0"> </tspan></text>
    <text class="cls-6" transform="translate(34.88 210.56) rotate(23.69) scale(1.04 1)"><tspan x="0" y="0"> </tspan></text>
    <text class="cls-6" transform="translate(39.57 212.6) rotate(20.09) scale(1.04 1)"><tspan x="0" y="0"> </tspan></text>
    <text class="cls-6" transform="translate(44.57 214.64) rotate(14.21) scale(1.04 1)"><tspan x="0" y="0">M</tspan></text>
    <text class="cls-6" transform="translate(59.66 218.27) rotate(8.36) scale(1.04 1)"><tspan x="0" y="0">a</tspan></text>
    <text class="cls-6" transform="translate(69.94 219.7) rotate(5.15) scale(1.04 1)"><tspan x="0" y="0">r</tspan></text>
    <text class="cls-6" transform="translate(76.31 220.26) rotate(3.22) scale(1.04 1)"><tspan x="0" y="0">i</tspan></text>
    <text class="cls-6" transform="translate(81.11 220.58) rotate(.8) scale(1.04 1)"><tspan x="0" y="0">n</tspan></text>
    <text class="cls-6" transform="translate(91.44 220.71) rotate(-2.17) scale(1.04 1)"><tspan x="0" y="0">e</tspan></text>
    <text class="cls-6" transform="translate(101.73 220.45) rotate(-6.79) scale(1.04 1)"><tspan x="0" y="0">W</tspan></text>
    <text class="cls-6" transform="translate(118.18 218.34) rotate(-12.59) scale(1.04 1)"><tspan x="0" y="0">e</tspan></text>
    <text class="cls-6" transform="translate(128.23 216) rotate(-17.41) scale(1.04 1)"><tspan x="0" y="0">r</tspan></text>
    <text class="cls-6" transform="translate(134.83 214.02) rotate(-23.96) scale(1.04 1)"><tspan x="0" y="0">k</tspan></text>
  </g>
</svg>