<?xml version="1.0" encoding="UTF-8"?>
<svg id="_Шар_2" data-name="Шар 2" xmlns="http://www.w3.org/2000/svg" xmlns:xlink="http://www.w3.org/1999/xlink" viewBox="0 0 173.01 173.01">
  <defs>
    <style>
      .cls-1, .cls-2 {
        fill: #fff;
      }

      .cls-3 {
        fill: url(#Grey);
      }

      .cls-4 {
        fill: #b2b2b2;
      }

      .cls-4, .cls-2, .cls-5 {
        stroke: #1d1d1b;
        stroke-miterlimit: 10;
      }

      .cls-6 {
        fill: none;
      }

      .cls-5 {
        fill: #ededed;
      }
    </style>
    <linearGradient id="Grey" x1="404.12" y1="193.51" x2="415.29" y2="193.51" gradientTransform="translate(4.51 -381.38) rotate(49.13)" gradientUnits="userSpaceOnUse">
      <stop offset="0" stop-color="#b5c4d4"/>
      <stop offset=".5" stop-color="#85a4bd"/>
      <stop offset=".6" stop-color="#7e9fb9"/>
      <stop offset="1" stop-color="#6791ad"/>
    </linearGradient>
  </defs>
  <g id="_Шар_7" data-name="Шар 7">
    <circle class="cls-1" cx="85.74" cy="87.01" r="82.48"/>
    <g>
      <path class="cls-6" d="m86.5,6.58C42.74,6.58,7.2,41.72,6.52,85.33c.4-.11.82-.17,1.25-.17,3.16,0,5.72,3.09,5.72,6.9,0,.43-.04.85-.1,1.26.61-.19,1.25-.3,1.92-.3,2.98,0,5.48,2.06,6.17,4.83.06,0,.13,0,.19,0,2.58,0,4.76,1.73,5.44,4.09,1.22.17,2.37.51,3.4,1.03,1.2-2.18,3.52-3.67,6.18-3.67,3.63,0,6.62,2.75,7,6.28l41.12-25.1,9.34,10.82-30.48,37.96c3.14,1.07,5.31,3.36,5.31,6.03,0,1.25-.48,2.41-1.31,3.4,2.06,1.18,3.49,3.81,3.49,6.89,0,1.6-.39,3.07-1.05,4.29-.02.83-.13,1.61-.31,2.3,2.28.3,4.19,1.79,5.06,3.84,2.73.35,4.81,2.19,4.81,4.41,0,.25-.03.5-.09.75,1.81.73,3.04,2.13,3.04,3.73,0,.57-.16,1.11-.43,1.6,1.41.07,2.84.12,4.27.12,44.19,0,80.02-35.82,80.02-80.02S130.7,6.58,86.5,6.58Z"/>
      <path d="m86.5,0C38.73,0,0,38.73,0,86.51s38.73,86.5,86.5,86.5,86.5-38.73,86.5-86.5S134.28,0,86.5,0Zm0,166.61c-1.43,0-2.85-.04-4.27-.12.28-.49.43-1.03.43-1.6,0-1.61-1.23-3-3.04-3.73.05-.24.09-.49.09-.75,0-2.22-2.08-4.06-4.81-4.41-.87-2.05-2.78-3.54-5.06-3.84.18-.69.29-1.47.31-2.3.66-1.22,1.05-2.7,1.05-4.29,0-3.07-1.44-5.71-3.49-6.89.82-1,1.31-2.16,1.31-3.4,0-2.67-2.18-4.96-5.31-6.03l30.48-37.96-9.34-10.82-41.12,25.1c-.38-3.53-3.37-6.28-7-6.28-2.67,0-4.99,1.48-6.18,3.67-1.04-.51-2.19-.86-3.4-1.03-.68-2.36-2.86-4.09-5.44-4.09-.07,0-.13,0-.19,0-.69-2.77-3.18-4.83-6.17-4.83-.67,0-1.31.1-1.92.3.06-.41.1-.83.1-1.26,0-3.81-2.56-6.9-5.72-6.9-.43,0-.85.06-1.25.17C7.2,41.72,42.74,6.58,86.5,6.58s80.02,35.82,80.02,80.02-35.82,80.02-80.02,80.02Z"/>
    </g>
    <path class="cls-1" d="m88.03,86.82c-.09-.11-.19-.22-.29-.32.1.1.2.21.29.32,0,0,0,0,0,0Z"/>
    <path class="cls-1" d="m89.1,92.75c-2.02,1.86-11.45,7.09-13.18,4.97-1.73-2.13,4.87-10.81,6.9-12.67.77-.7,1.68-1.1,2.61-1.22l-.71-.82c-1.72-.06-3.47.53-4.88,1.82-2.94,2.7-12.57,15.35-10.04,18.44,2.53,3.1,16.24-4.53,19.19-7.23,1.52-1.4,2.34-3.32,2.44-5.29l-.75-.86c-.21,1.07-.74,2.08-1.58,2.86Z"/>
    <path class="cls-1" d="m80.03,94.05c1.13,1.37,7.28-2,8.6-3.19.62-.56.97-1.31,1.06-2.1l-3.18-3.67c-.71.02-1.41.28-1.99.8-1.32,1.19-5.63,6.79-4.5,8.16Z"/>
    <path class="cls-5" d="m81.62,78.14l-8.75-10.11c-.7-.81-.26-2.07.79-2.27l23.23-4.4-5.47,5.6c-1.9,1.95-3.73,3.97-5.49,6.05l-4.32,5.14Z"/>
    <path class="cls-5" d="m104.18,90.94l-7.31,4.82-15.29-17.67,5.82-6.55c10.79-12.14,22.97-22.97,36.28-32.27l14.34-10.01,15.29,17.67-11.97,12.75c-11.12,11.84-23.59,22.33-37.15,31.26Z"/>
    <path class="cls-5" d="m96.99,95.9l8.75,10.11c.7.81,2.01.56,2.36-.46l7.7-22.36-6.33,4.61c-2.2,1.6-4.46,3.13-6.78,4.56l-5.7,3.53Z"/>
    <line class="cls-2" x1="84.28" y1="75.04" x2="100.27" y2="93.51"/>
    <path class="cls-2" d="m159.43,23.74l-20.92,5.26,15.12,17.47,8.22-19.95c.64-1.56-.77-3.2-2.41-2.78Z"/>
    <g>
      <path class="cls-4" d="m131.92,50.15c-2.71-3.13-7.45-3.48-10.58-.76s-3.48,7.45-.76,10.58c2.71,3.13,7.45,3.48,10.58.76s3.48-7.45.76-10.58Zm-9.9,8.56c-2.02-2.33-1.76-5.86.57-7.88,2.33-2.02,5.86-1.76,7.88.57,2.02,2.33,1.76,5.86-.57,7.88s-5.86,1.76-7.88-.57Z"/>
      <path class="cls-3" d="m130.46,51.41c-2.02-2.33-5.54-2.59-7.88-.57-2.33,2.02-2.59,5.54-.57,7.88s5.54,2.59,7.88.57,2.59-5.54.57-7.88Z"/>
    </g>
    <circle class="cls-2" cx="131.21" cy="50.59" r=".19"/>
    <circle class="cls-2" cx="128.35" cy="48.7" r=".19"/>
    <circle class="cls-2" cx="124.94" cy="48.49" r=".19"/>
    <circle class="cls-2" cx="121.87" cy="50.01" r=".19"/>
    <circle class="cls-2" cx="119.98" cy="52.86" r=".19"/>
    <circle class="cls-2" cx="119.77" cy="56.28" r=".19"/>
    <circle class="cls-2" cx="121.29" cy="59.34" r=".19"/>
    <circle class="cls-2" cx="124.14" cy="61.24" r=".19"/>
    <circle class="cls-2" cx="127.56" cy="61.45" r=".19"/>
    <circle class="cls-2" cx="130.62" cy="59.93" r=".19"/>
    <circle class="cls-2" cx="132.52" cy="57.08" r=".19"/>
    <circle class="cls-2" cx="132.73" cy="53.66" r=".19"/>
  </g>
</svg>